<svg xmlns="http://www.w3.org/2000/svg" viewBox="0 0 50 50.965"><path d="M29.53 20.972v-8.22l10.57 5.033v8.893l-10.57-5.705" fill="#010101"/><path d="M30.369 20.3v-6.542l9.4 4.531v7.048l-9.4-5.035" fill="#962781"/><path d="M29.53 12.752 39.6 8.389l10.235 4.866-9.235 4.866-11.07-5.369" fill="#010101"/><path d="M31.208 12.919 39.43 9.4l8.724 4.028-7.886 4.026-9.06-4.53" fill="#962781"/><path d="m39.933 17.953.167 8.724 9.9-4.864-.168-8.556-9.9 4.7" fill="#010101"/><path d="M40.939 18.288v7.047l8.054-4.026v-7.215l-8.054 4.194" fill="#962781"/><path d="M14.43 12.416V4.194L25 9.228v8.893l-10.57-5.7" fill="#010101"/><path d="M15.269 11.745V5.2l9.4 4.531v7.215l-9.4-5.2" fill="#6584bf"/><path d="M14.43 4.194 24.5 0l10.231 4.7L25.5 9.564l-11.07-5.37" fill="#010101"/><path d="M16.107 4.362 24.329.839l8.725 4.027-7.886 4.026-9.061-4.529" fill="#6584bf"/><path d="M24.832 9.4 25 18.121l9.9-4.866-.171-8.555-9.9 4.7" fill="#010101"/><path d="M25.839 9.732v7.046l8.053-4.026V5.705l-8.053 4.026" fill="#6584bf"/><path d="M0 20.469v-8.221l10.4 5.033.167 8.894L0 20.469" fill="#010101"/><path d="M.839 19.8v-6.546l9.4 4.531v7.048L.839 19.8" fill="#d87b2f"/><path d="m0 12.248 10.067-4.362L20.3 12.752l-9.4 4.866L0 12.248" fill="#010101"/><path d="M1.51 12.416 9.9 8.892l8.725 4.028-7.886 4.026-9.229-4.531" fill="#d87b2f"/><path d="m10.4 17.449.167 8.726 9.9-4.866-.167-8.557-9.9 4.7" fill="#010101"/><path d="m11.241 17.785.169 7.048 8.053-4.028-.163-7.215-8.052 4.2" fill="#d87b2f"/><path d="M15.269 21.644v-8.221l10.4 5.033.168 9.06-10.57-5.872" fill="#010101"/><path d="M16.107 21.141v-6.712l9.4 4.531v7.215l-9.4-5.034" fill="#dfd520"/><path d="m15.269 13.423 10.066-4.195 10.235 4.7-9.395 4.866-10.906-5.371" fill="#010101"/><path d="m16.778 13.758 8.389-3.523 8.725 4.027-8.053 3.859-9.061-4.363" fill="#dfd520"/><path d="m25.671 18.624.168 8.892 9.731-5.033v-8.557l-9.9 4.7" fill="#010101"/><path d="m26.51 18.96.167 7.046 8.054-3.859-.167-7.214-8.054 4.027" fill="#dfd520"/><path d="m42.165 50.465-.648-2.716H37.9l-.7 2.716h-5.9l5.43-15.756h6.235l5.11 15.756Zm-1.722-6.876-.759-2.964a877.56 877.56 0 0 1-.768 2.964Zm-22.194 6.876V34.709h6.767c4.23 0 6.376 1.369 6.376 4.07a3.289 3.289 0 0 1-.438 1.664 3.846 3.846 0 0 1-1.3 1.306c-.1.066-.21.129-.318.187a5.144 5.144 0 0 1 .537.277 4.2 4.2 0 0 1 1.458 1.411 3.442 3.442 0 0 1 .528 1.81v.813l-.054-.028a4.308 4.308 0 0 1-1.668 2.962 7.483 7.483 0 0 1-4.659 1.284Zm6.426-3.994h.124a1.73 1.73 0 0 0 1.015-.327.962.962 0 0 0 .027-1.4 1.273 1.273 0 0 0-.812-.291h-1.335v2.016Zm-.187-6a1.385 1.385 0 0 0 .9-.289.774.774 0 0 0 .284-.62c0-.25 0-.881-1.651-.881h-.323v1.79ZM7 50.465 1.916 34.709h5.863l2.214 8.926 2.168-8.929h5.714L12.72 50.465Z" fill="#010101"/><path d="m17.185 35.206-4.827 14.759H7.367L2.6 35.208h4.788L9.642 44.3a10.189 10.189 0 0 1 .3 1.645h.1a11.294 11.294 0 0 1 .319-1.71l2.191-9.024h4.631m25.417 0 4.785 14.757h-4.826l-.648-2.716h-4.4l-.7 2.716H32l5.083-14.757H42.6m-4.334 8.881h2.82l-1.029-4.013a12.557 12.557 0 0 1-.3-1.657h-.1a7.435 7.435 0 0 1-.144.813q-.125.566-1.246 4.857m-13.251-8.884q5.876 0 5.875 3.571a2.783 2.783 0 0 1-.37 1.415 3.329 3.329 0 0 1-1.127 1.127 4.706 4.706 0 0 1-1.66.659v.041a4.685 4.685 0 0 1 1.884.623 3.66 3.66 0 0 1 1.282 1.245 2.947 2.947 0 0 1 .453 1.548 3.987 3.987 0 0 1-1.522 3.349 6.991 6.991 0 0 1-4.354 1.179h-6.73V35.208h6.267M23.2 40.971h1.361a1.829 1.829 0 0 0 1.139-.4 1.276 1.276 0 0 0 .473-1.024q0-1.368-2.151-1.368H23.2v2.788m0 6h1.605a2.242 2.242 0 0 0 1.307-.421 1.373 1.373 0 0 0 .525-1.136 1.339 1.339 0 0 0-.463-1.05 1.774 1.774 0 0 0-1.139-.413h-1.841v3.023m-4.63-12.764h-6.8l-.185.764-1.6 6.567-1.63-6.569-.188-.76H1.23l.422 1.308 4.764 14.756.223.693h6.444l.226-.689 4.44-13.576v14.265h7.73a7.974 7.974 0 0 0 4.966-1.388 4.9 4.9 0 0 0 .98-1l-.367 1.067-.458 1.321h6.983l.193-.751.506-1.965h2.839l.465 1.948.183.768h6.993l-.424-1.309L43.553 34.9l-.224-.692h-6.956l-.233.675-3.781 10.977v-.43a3.937 3.937 0 0 0-.607-2.074 4.685 4.685 0 0 0-1.435-1.456 4.353 4.353 0 0 0 1.059-1.188 3.791 3.791 0 0 0 .515-1.942c0-2.076-1.193-4.562-6.875-4.562h-6.452Zm5.636 5.765v-.786c.478.015.973.095.973.366a.3.3 0 0 1-.1.246.828.828 0 0 1-.511.176H24.2Zm15.368 3.118.119-.458.117.458Z" fill="#fff"/></svg>